<?xml version="1.0" encoding="utf-8"?>
<!-- Generator: Adobe Illustrator 16.0.0, SVG Export Plug-In . SVG Version: 6.00 Build 0)  -->
<!DOCTYPE svg PUBLIC "-//W3C//DTD SVG 1.1//EN" "http://www.w3.org/Graphics/SVG/1.1/DTD/svg11.dtd">
<svg version="1.1" id="Layer_1" xmlns="http://www.w3.org/2000/svg" xmlns:xlink="http://www.w3.org/1999/xlink" x="0px" y="0px"
	 width="100px" height="83px" viewBox="0 0 100 83" enable-background="new 0 0 100 83" xml:space="preserve">
<path d="M99.98,2.312C99.884,1.021,98.816,0,97.5,0h-95C1.184,0,0.116,1.021,0.019,2.312L0,66.5C0,67.881,1.119,69,2.5,69h95
	c1.381,0,2.5-1.119,2.5-2.5L99.98,2.312z M96,57H4V4h92V57z"/>
<path d="M66,81c-4-1-5-4-5-8v-1H50H39v1c0,4-1,7-5,8c-0.97,0.242-1,2,0,2h16h16C67,83,66.971,81.242,66,81z"/>
<g id="Your_Icon">
	<path d="M51.254,36.601c0,0,1.002,2.694,0.741,2.694s-1.833,2.34-1.833,2.34l2.093,3.289l3.484-1.385l1.658,1.385l0.262,3.032
		l4.095,0.607l1.223-2.685l1.828-0.438l2.789,1.562l3.052-2.079l-0.871-2.86l0.871-1.729l3.312-0.695l0.696-4.154l-3.05-1.385
		l-0.262-1.994l1.655-2.422l-2.438-3.511l-3.051,1.172l-1.743-1.172l-0.438-2.726l-4.009-0.517l-1.394,2.685l-1.917,0.558
		l-2.44-1.688l-3.226,1.688l0.948,2.903l-1.193,2.006l-2.978,0.495l-0.436,4.166L51.254,36.601z M61.67,30.143
		c3.245,0,5.884,2.508,5.884,5.603c0,3.097-2.64,5.602-5.884,5.602c-3.252,0-5.884-2.505-5.884-5.602
		C55.786,32.65,58.417,30.143,61.67,30.143z M45.375,48.264l2.351-2.722l-1.442-2.404l1.079-1.561l2.509-1.485l-0.732-3.213
		l-2.617-0.682l-0.741-1.647l1.045-2.549l-2.732-2.445l-2.158,1.31l-1.845-0.503l-0.99-2.788l-3.882,0.395l-0.71,2.57l-1.542,1
		l-2.77-1.282l-2.481,2.941l1.476,2.685l-0.69,1.621l-2.505,1.093l0.355,3.324l2.735,0.995l0.78,1.516l-1.148,2.426l2.844,2.457
		l2.267-1.614l1.943,0.319l1.096,3.217l3.529-0.507c0,0,0.699-2.462,0.546-2.643c-0.156-0.18,1.988-0.961,1.988-0.961L45.375,48.264
		z M41.176,43.384c-2.156,1.828-5.46,1.503-7.381-0.729c-1.921-2.236-1.729-5.529,0.424-7.357c2.154-1.833,5.46-1.503,7.381,0.729
		C43.52,38.26,43.33,41.556,41.176,43.384z M55.345,17.291l-1.188-2.812l-2.389,0.178l-0.782-1.405l-0.184-2.459l-2.738-0.663
		l-1.511,1.718l-1.544-0.067l-1.55-1.756l-2.908,1.137l0.186,2.126l-1.087,1.2l-2.507-0.312l-1.172,3.085l1.701,1.511l0.177,1.541
		l-2.023,1.607l1.302,2.986l2.615-0.094l0.979,1.136l-0.115,2.305l2.676,0.99l1.799-1.685l1.454-0.014l1.42,1.785l2.959-1.22
		l-0.375-2.317l0.979-1.347l2.875,0.389l0.949-2.851c0,0-1.615-1.463-1.811-1.417c-0.199,0.05,0.018-1.868,0.018-1.868
		L55.345,17.291z M50.019,18.608c0.584,2.32-0.919,4.69-3.355,5.294c-2.436,0.604-4.883-0.789-5.465-3.111
		c-0.584-2.322,0.921-4.687,3.357-5.293C46.991,14.894,49.438,16.287,50.019,18.608z"/>
</g>
</svg>
