<svg xmlns="http://www.w3.org/2000/svg" xmlns:xlink="http://www.w3.org/1999/xlink" version="1.1" id="Your_Icon" x="0px" y="0px" width="100px" height="100px" viewBox="0 0 100 100" enable-background="new 0 0 100 100" xml:space="preserve">
<path fill="none" d="M49.097,93.891c0,0.77,0,1.434,0,1.952c0.446,0.016,0.895,0.025,1.345,0.028c0-0.51,0-1.17,0-1.951  C49.992,93.917,49.543,93.907,49.097,93.891z"/>
<path fill="#000000" d="M99.813,47.364c-0.031-3.556-2.467-7.385-7.748-7.385c-7.271,0-21.248-0.337-25.846-0.453  c1.396-6.54,1.961-15.383,1.986-15.786c0.01-0.144-0.008-0.287-0.047-0.424C65.096,12.966,61.109,7.719,56.311,7.719  c-3.596,0-6.093,3.081-6.199,3.21c-0.173,0.218-0.267,0.489-0.267,0.767v12.903c-0.121,0.18-0.259,0.396-0.423,0.655  c-0.38,0.598-0.917,1.451-1.558,2.477c-1.282,2.045-2.98,4.772-4.677,7.5c-2.949,4.745-5.89,9.489-6.604,10.641l-3.791,2.18v-0.122  c0-0.679-0.55-1.229-1.229-1.229H1.23c-0.344,0-0.672,0.145-0.905,0.397c-0.232,0.253-0.349,0.592-0.321,0.935l3.607,43.12  c0.054,0.637,0.586,1.128,1.226,1.128h26.725c0.679,0,1.229-0.551,1.229-1.228v-5.167h3.357l5.616,3.277  c0.187,0.108,0.401,0.165,0.619,0.165H81.08c3.885,0,6.152-1.699,7.373-3.128c1.42-1.661,2.234-3.919,2.234-6.193  c0-1.477-0.332-2.758-0.912-3.718c2.846-1.168,4.162-3.902,4.154-6.48c-0.006-1.731-0.566-3.25-1.49-4.334  c2.775-1.273,4.076-4.017,4.105-6.74c0.018-1.704-0.428-3.212-1.184-4.306C98.32,53.174,99.836,50.243,99.813,47.364z   M22.381,85.641c-1.721,0-3.116-1.394-3.116-3.114c0-1.722,1.395-3.114,3.116-3.114c1.72,0,3.114,1.393,3.114,3.114  C25.496,84.247,24.101,85.641,22.381,85.641z M92.201,52.604h-0.047c-0.045,0-0.092,0-0.139,0.001  c-0.668,0.027-1.195,0.583-1.182,1.253s0.559,1.207,1.23,1.207c0.045,0,0.088,0,0.133-0.002c1.027,0.043,1.908,1.738,1.887,3.646  c-0.027,2.439-1.434,5.047-5.299,5.047c-0.68,0-1.23,0.55-1.23,1.228c0,0.681,0.551,1.23,1.23,1.23c1.754,0,2.682,1.813,2.686,3.604  c0.006,2.104-1.246,4.567-4.824,4.595l0,0c-0.002,0-0.002,0-0.004,0c-0.678,0.005-1.213,0.559-1.207,1.233  c0.002,0.678,0.561,1.225,1.238,1.225c0.871,0,1.553,1.379,1.553,3.138c0,1.697-0.598,3.372-1.643,4.595  c-1.287,1.507-3.139,2.269-5.504,2.269H42.716l-5.614-3.274c-0.188-0.111-0.403-0.168-0.62-0.168h-3.69V50.891l5.287-3.042  c0.176-0.102,0.324-0.245,0.432-0.418c5.087-8.213,12.782-20.6,13.503-21.659c0.182-0.214,0.289-0.491,0.289-0.793V12.169  c0.602-0.617,2.148-1.991,4.008-1.991c3.453,0,6.797,4.837,9.426,13.625c-0.105,1.524-0.781,10.751-2.248,16.615  c-0.09,0.362-0.01,0.746,0.215,1.042c0.227,0.296,0.574,0.476,0.947,0.485c0.184,0.005,18.645,0.493,27.414,0.493  c3.625,0,5.268,2.484,5.289,4.945C97.373,49.854,95.77,52.537,92.201,52.604z"/>
</svg>