<svg xmlns="http://www.w3.org/2000/svg" xmlns:xlink="http://www.w3.org/1999/xlink" version="1.1" id="Capa_1" x="0px" y="0px" width="100px" height="100px" viewBox="0 0 100 100" enable-background="new 0 0 100 100" xml:space="preserve">
<path fill="#000000" d="M96.715,46.715h-10.01c-0.684-7.699-3.742-14.725-8.439-20.336l7.09-7.09c1.281-1.282,1.281-3.362,0-4.646  c-1.283-1.282-3.363-1.282-4.646,0l-7.09,7.09c-5.611-4.696-12.637-7.756-20.335-8.439V3.285C53.285,1.47,51.814,0,50,0  s-3.285,1.47-3.285,3.284v10.01c-7.699,0.684-14.724,3.742-20.335,8.439l-7.09-7.09c-1.283-1.282-3.362-1.282-4.645,0  s-1.283,3.362,0,4.646l7.09,7.09c-4.698,5.611-7.757,12.637-8.441,20.336H3.285C1.471,46.715,0,48.186,0,50  c0,1.814,1.471,3.285,3.285,3.285h10.009c0.684,7.698,3.743,14.725,8.44,20.336l-7.089,7.09c-1.283,1.282-1.283,3.362,0,4.645  c0.642,0.642,1.482,0.962,2.323,0.962c0.84,0,1.681-0.32,2.322-0.962l7.09-7.089c5.612,4.697,12.637,7.757,20.336,8.44v10.009  c0,1.813,1.471,3.284,3.285,3.284s3.285-1.471,3.285-3.284V86.707c7.698-0.684,14.724-3.743,20.337-8.44l7.088,7.089  c0.643,0.642,1.482,0.962,2.324,0.962c0.84,0,1.68-0.32,2.322-0.962c1.281-1.282,1.281-3.362,0-4.646l-7.09-7.089  c4.697-5.611,7.756-12.638,8.439-20.336h10.01C98.53,53.285,100,51.814,100,50C100,48.186,98.53,46.715,96.715,46.715z   M80.106,46.715H65.163c-0.398-1.849-1.127-3.573-2.121-5.112L73.6,31.044C77.133,35.433,79.467,40.823,80.106,46.715z M43.025,50  c0-3.852,3.123-6.975,6.975-6.975s6.975,3.123,6.975,6.975S53.852,56.975,50,56.975S43.025,53.852,43.025,50z M68.956,26.4  L58.397,36.958c-1.539-0.993-3.264-1.722-5.112-2.12V19.894C59.176,20.533,64.567,22.868,68.956,26.4z M46.715,19.894v14.943  c-1.848,0.398-3.573,1.127-5.112,2.12L31.045,26.4C35.434,22.868,40.823,20.533,46.715,19.894z M26.4,31.044l10.558,10.559  c-0.993,1.539-1.722,3.264-2.121,5.112H19.894C20.532,40.823,22.868,35.433,26.4,31.044z M19.894,53.285h14.944  c0.398,1.849,1.127,3.573,2.12,5.112L26.399,68.956C22.867,64.567,20.532,59.176,19.894,53.285z M31.044,73.601l10.558-10.559  c1.539,0.993,3.264,1.722,5.113,2.121v14.943C40.823,79.468,35.434,77.133,31.044,73.601z M53.285,80.107V65.164  c1.849-0.399,3.573-1.128,5.112-2.121L68.956,73.6C64.567,77.132,59.176,79.468,53.285,80.107z M73.6,68.956L63.043,58.397  c0.992-1.539,1.721-3.264,2.119-5.112h14.943C79.467,59.176,77.133,64.566,73.6,68.956z"/>
</svg>