<svg xmlns="http://www.w3.org/2000/svg" xmlns:xlink="http://www.w3.org/1999/xlink" version="1.1" id="Layer_1" x="0px" y="0px" width="100px" height="100px" viewBox="0 0 100 100" enable-background="new 0 0 100 100" xml:space="preserve">
<path d="M83.611,22.29H46.527c-8.471,0-15.363,6.892-15.363,15.363v19.309c0,8.471,6.892,15.363,15.363,15.363h25.716l12.1,13.824  l3.303,3.733c0.177,0.199,0.425,0.303,0.679,0.303c0.109,0,0.217-0.018,0.321-0.059c0.348-0.131,0.584-0.471,0.584-0.846V71.252  c5.851-2.303,9.743-7.964,9.743-14.291V37.653C98.974,29.182,92.082,22.29,83.611,22.29z M95.277,56.962  c0,4.765-2.864,9.005-7.295,10.802c-0.557,0.24-1.136,0.425-1.742,0.561c-0.412,0.091-0.706,0.457-0.706,0.882v12.689l-9.675-11.073  l-1.656-1.887c-0.172-0.195-0.421-0.308-0.679-0.308H46.527c-6.435,0-11.666-5.231-11.666-11.666V37.653  c0-6.43,5.231-11.666,11.666-11.666h37.084c6.43,0,11.666,5.236,11.666,11.666V56.962z"/>
<path d="M28.499,45.468h-5.168c-0.258,0-0.507,0.109-0.679,0.308L21,47.663L14.466,55.5v-9.458c0-0.421-0.294-0.787-0.71-0.882  c-0.602-0.136-1.186-0.321-1.729-0.552c-4.444-1.806-7.304-6.046-7.304-10.806v-8.625c0-6.435,5.231-11.666,11.666-11.666h27.024  c4.405,0,8.397,2.482,10.389,6.382h4.039c-0.35-0.95-0.795-1.869-1.328-2.735c-2.824-4.598-7.72-7.344-13.1-7.344H16.389  c-8.471,0-15.363,6.892-15.363,15.363v8.625c0,6.326,3.887,11.987,9.743,14.286v14.888c0,0.376,0.231,0.715,0.584,0.846  c0.104,0.041,0.213,0.059,0.321,0.059c0.253,0,0.502-0.104,0.679-0.303l3.299-3.729c0.005-0.005,0.009-0.009,0.014-0.018  l8.955-10.67h3.878V45.468z"/>
</svg>